; NON-PLATED HOLES START AT T1
; THROUGH (PLATED) HOLES START AT T100
M48
INCH
T100C0.035000
T101C0.038000
T102C0.015748
T103C0.041000
T104C0.042000
T105C0.040000
T106C0.036000
%
T100
X004666Y033018
X007666Y033018
X008587Y005459
X024704Y010635
X011666Y033018
X004847Y009986
X000666Y005459
X025319Y001522
X000910Y009986
X023351Y008364
X025319Y012967
X030312Y013020
X017666Y033018
X005666Y033018
X006619Y007427
X009666Y033018
X006666Y033018
X003666Y033018
X005587Y005459
X018666Y033018
X023351Y011364
X030260Y008411
X012666Y033018
X025319Y008411
X006619Y009986
X025319Y006077
X014666Y033018
X016666Y033018
X024704Y003745
X000910Y007427
X015666Y033018
X003666Y005459
X030260Y001522
X023351Y003443
X023351Y006443
X010666Y033018
X004847Y007427
X008666Y033018
X013666Y033018
X002682Y009986
X002682Y007427
X030312Y006130
T101
X011477Y009396
X015477Y009396
X014477Y009396
X013477Y009396
X010477Y009396
X012477Y009396
T102
X003960Y009393
X006120Y017553
X005640Y016833
X011400Y032193
X014520Y007713
X012360Y011073
X016200Y010833
X003720Y031713
X001320Y016593
T103
X020398Y018254
X021398Y014254
X019398Y014254
T104
X026304Y017270
X021382Y008396
X026304Y016270
X021382Y009396
X021382Y005474
X026304Y018270
X021382Y003474
X021382Y004474
X021382Y010396
T105
X033193Y002703
X033193Y010970
X033193Y016285
X033193Y017663
X033193Y009592
X033193Y012348
X033193Y005459
X033193Y004081
T106
X015591Y014344
X003634Y012348
X002634Y012348
X002634Y018348
X012634Y012348
X004634Y018348
X011634Y018348
X016590Y015346
X006634Y012348
X015591Y015346
X009634Y012348
X015591Y016346
X016590Y016346
X007634Y012348
X014634Y012348
X008634Y012348
X009634Y018348
X013634Y012348
X006634Y018348
X008634Y018348
X001634Y018348
X001634Y012348
X016590Y014344
X015634Y018348
X003634Y018348
X004634Y012348
X015634Y012348
X005634Y012348
X005634Y018348
X011634Y012348
X010634Y018348
X010634Y012348
X014634Y018348
X007634Y018348
X012634Y018348
X013634Y018348
T00
M30
