G04 MADE WITH FRITZING*
G04 WWW.FRITZING.ORG*
G04 DOUBLE SIDED*
G04 HOLES PLATED*
G04 CONTOUR ON CENTER OF CONTOUR VECTOR*
%ASAXBY*%
%FSLAX23Y23*%
%MOIN*%
%OFA0B0*%
%SFA1.0B1.0*%
%ADD10C,0.075000*%
%ADD11C,0.078000*%
%ADD12C,0.099000*%
%ADD13C,0.070000*%
%ADD14C,0.080000*%
%ADD15C,0.082000*%
%ADD16C,0.039370*%
%ADD17R,0.075000X0.075000*%
%ADD18R,0.078000X0.078000*%
%ADD19R,0.099000X0.099000*%
%ADD20R,0.070000X0.069958*%
%ADD21R,0.080000X0.080000*%
%ADD22R,0.082000X0.082000*%
%ADD23C,0.024000*%
%LNCOPPER0*%
G90*
G70*
G54D10*
X367Y3302D03*
X467Y3302D03*
X567Y3302D03*
X667Y3302D03*
X767Y3302D03*
X867Y3302D03*
X967Y3302D03*
X1067Y3302D03*
X1167Y3302D03*
X1267Y3302D03*
X1367Y3302D03*
X1467Y3302D03*
X1567Y3302D03*
X1667Y3302D03*
X1767Y3302D03*
X1867Y3302D03*
G54D11*
X1548Y940D03*
X1448Y940D03*
X1348Y940D03*
X1248Y940D03*
X1148Y940D03*
X1048Y940D03*
G54D12*
X2140Y1425D03*
X1940Y1425D03*
X2040Y1825D03*
G54D13*
X1563Y1835D03*
X1463Y1835D03*
X1363Y1835D03*
X1263Y1835D03*
X1163Y1835D03*
X1063Y1835D03*
X963Y1835D03*
X863Y1835D03*
X763Y1835D03*
X663Y1835D03*
X563Y1835D03*
X463Y1835D03*
X363Y1835D03*
X263Y1835D03*
X163Y1835D03*
X1563Y1235D03*
X1463Y1235D03*
X1363Y1235D03*
X1263Y1235D03*
X1163Y1235D03*
X1063Y1235D03*
X963Y1235D03*
X863Y1235D03*
X763Y1235D03*
X663Y1235D03*
X563Y1235D03*
X463Y1235D03*
X363Y1235D03*
X263Y1235D03*
X163Y1235D03*
X1659Y1635D03*
X1559Y1635D03*
X1659Y1535D03*
X1559Y1535D03*
X1659Y1434D03*
X1559Y1434D03*
G54D10*
X662Y999D03*
X662Y743D03*
X485Y999D03*
X485Y743D03*
X268Y999D03*
X268Y743D03*
X91Y999D03*
X91Y743D03*
X559Y546D03*
X859Y546D03*
X2335Y344D03*
X2335Y644D03*
X2335Y836D03*
X2335Y1136D03*
X67Y546D03*
X367Y546D03*
X2532Y841D03*
X3026Y841D03*
X3031Y1302D03*
X2470Y1064D03*
X2532Y1297D03*
X2532Y152D03*
X3026Y152D03*
X3031Y613D03*
X2470Y375D03*
X2532Y608D03*
G54D14*
X3319Y546D03*
X3319Y408D03*
X3319Y270D03*
X3319Y1235D03*
X3319Y1097D03*
X3319Y959D03*
G54D15*
X2630Y1827D03*
X2630Y1727D03*
X2630Y1627D03*
X2138Y1040D03*
X2138Y940D03*
X2138Y840D03*
X2138Y547D03*
X2138Y447D03*
X2138Y347D03*
G54D14*
X3319Y1766D03*
X3319Y1629D03*
G54D16*
X1140Y3219D03*
X1236Y1107D03*
X1620Y1083D03*
X372Y3171D03*
X612Y1755D03*
X1452Y771D03*
X564Y1683D03*
X396Y939D03*
X132Y1659D03*
G54D17*
X366Y3302D03*
G54D18*
X1548Y940D03*
G54D19*
X1940Y1425D03*
G54D20*
X1563Y1835D03*
G54D17*
X2533Y841D03*
X2533Y152D03*
G54D21*
X3319Y546D03*
X3319Y1235D03*
G54D22*
X2630Y1827D03*
X2138Y1040D03*
X2138Y547D03*
G54D21*
X3319Y1766D03*
G54D23*
X2170Y347D02*
X2307Y345D01*
D02*
X2170Y839D02*
X2307Y837D01*
D02*
X3055Y1285D02*
X3294Y1115D01*
D02*
X3288Y1765D02*
X2662Y1729D01*
D02*
X3294Y426D02*
X3055Y596D01*
D02*
X2499Y1063D02*
X3372Y1035D01*
X3372Y1035D02*
X3396Y1179D01*
X3396Y1179D02*
X3345Y1217D01*
D02*
X2168Y460D02*
X2505Y597D01*
D02*
X3347Y532D02*
X3396Y507D01*
X3396Y507D02*
X3372Y339D01*
X3372Y339D02*
X2499Y373D01*
D02*
X2517Y1273D02*
X2412Y1107D01*
X2412Y1107D02*
X2166Y956D01*
D02*
X1261Y3274D02*
X1260Y3267D01*
X1260Y3267D02*
X1158Y3226D01*
D02*
X1546Y3282D02*
X1164Y2907D01*
X1164Y2907D02*
X1164Y1864D01*
D02*
X510Y729D02*
X833Y559D01*
D02*
X443Y1815D02*
X108Y1491D01*
X108Y1491D02*
X108Y1179D01*
X108Y1179D02*
X468Y1179D01*
X468Y1179D02*
X482Y1027D01*
D02*
X346Y3282D02*
X60Y3003D01*
X60Y3003D02*
X60Y1131D01*
X60Y1131D02*
X244Y1014D01*
D02*
X1246Y970D02*
X1237Y1088D01*
D02*
X1539Y969D02*
X1471Y1207D01*
D02*
X1920Y1450D02*
X1716Y1707D01*
X1716Y1707D02*
X1620Y1707D01*
X1620Y1707D02*
X1578Y1657D01*
D02*
X2130Y578D02*
X2076Y771D01*
X2076Y771D02*
X2076Y1011D01*
X2076Y1011D02*
X2109Y1026D01*
D02*
X584Y3325D02*
X612Y3363D01*
X612Y3363D02*
X1932Y3363D01*
X1932Y3363D02*
X2038Y1857D01*
D02*
X1613Y1101D02*
X1574Y1208D01*
D02*
X2131Y1395D02*
X2124Y1371D01*
X2124Y1371D02*
X1592Y1242D01*
D02*
X450Y3279D02*
X383Y3187D01*
D02*
X629Y1747D02*
X1548Y1275D01*
X1548Y1275D02*
X1553Y1262D01*
D02*
X1433Y771D02*
X900Y771D01*
X900Y771D02*
X1028Y917D01*
D02*
X564Y1806D02*
X564Y1702D01*
D02*
X415Y939D02*
X588Y939D01*
X588Y939D02*
X612Y1059D01*
X612Y1059D02*
X1140Y1059D01*
X1140Y1059D02*
X1146Y970D01*
D02*
X2307Y1134D02*
X1692Y1083D01*
X1692Y1083D02*
X1620Y867D01*
X1620Y867D02*
X1188Y867D01*
X1188Y867D02*
X1162Y913D01*
D02*
X343Y563D02*
X114Y726D01*
D02*
X246Y1812D02*
X143Y1675D01*
G04 End of Copper0*
M02*